PathFileType	4	(X/Y/Z)	C:/Users/opensim2020/Desktop/walking_exp_matlab/subject06_walking11_run.trc																																																																																																																																								
DataRate	CameraRate	NumFrames	NumMarkers	Units	OrigDataRate	OrigDataStartFrame	OrigNumFrames																																																																																																																																				
100	100	5	46	mm	100	239	106																																																																																																																																				
Frame#	Time	LKNE			RKNE			RFRM			RWRA			RWRB			RELB			RUPA			RSHO			LWRA			RFIN			RFHD			CLAV			RASI			RTHI			LSHO			LTHI			RBHD			C7			LTIB			LANK			LTOE			LBHD			RTIB			RBAK			LHEE			RANK			STRN			RHEE			RTOE			T10			LUPA			LFHD			LPSI			RPSI			LASI			LFRM			LWRB			LFIN			LELB			*39			*40			*41			*42			*43			*44			*45		
		X1	Y1	Z1	X2	Y2	Z2	X3	Y3	Z3	X4	Y4	Z4	X5	Y5	Z5	X6	Y6	Z6	X7	Y7	Z7	X8	Y8	Z8	X9	Y9	Z9	X10	Y10	Z10	X11	Y11	Z11	X12	Y12	Z12	X13	Y13	Z13	X14	Y14	Z14	X15	Y15	Z15	X16	Y16	Z16	X17	Y17	Z17	X18	Y18	Z18	X19	Y19	Z19	X20	Y20	Z20	X21	Y21	Z21	X22	Y22	Z22	X23	Y23	Z23	X24	Y24	Z24	X25	Y25	Z25	X26	Y26	Z26	X27	Y27	Z27	X28	Y28	Z28	X29	Y29	Z29	X30	Y30	Z30	X31	Y31	Z31	X32	Y32	Z32	X33	Y33	Z33	X34	Y34	Z34	X35	Y35	Z35	X36	Y36	Z36	X37	Y37	Z37	X38	Y38	Z38	X39	Y39	Z39	X40	Y40	Z40	X41	Y41	Z41	X42	Y42	Z42	X43	Y43	Z43	X44	Y44	Z44	X45	Y45	Z45	X46	Y46	Z46
																																																																																																																																											
54	0.53	112.32719	442.19556	-221.40189	354.69125	470.56812	-326.49966	505.03995	1080.97729	-170.47415	415.43323	1049.245	-273.4444	459.38196	998.61859	-260.79333	521.10138	1164.0127	-103.56931	470.22614	1255.21375	-132.61255	344.59253	1368.41589	-247.67557	42.16961	1079.04102	-329.60126	431.59537	995.05011	-336.13733	255.29637	1600.53955	-316.36554	194.11432	1311.72961	-307.07352	340.95877	896.36823	-247.77315	386.41806	584.55701	-273.66284	29.05525	1344.53784	-254.53752	73.13982	599.38025	-188.9697	238.69145	1537.84875	-190.63487	177.40858	1399.11035	-201.77812	140.94327	215.43494	-106.13379	200.76247	70.77979	-22.56684	218.84898	34.78193	-157.12656	109.99646	1539.22144	-205.01662	365.54575	347.32614	-121.83834	263.36667	1251.63037	-102.0308	242.18193	74.13279	26.23015	342.15689	277.84296	50.7574	205.1898	1128.35815	-323.0918	299.57272	294.21899	98.14095	354.80154	137.81337	-2.04322	227.32018	1087.51709	-114.23381	-79.48195	1183.68152	-198.73421	123.25781	1607.61694	-331.1806	158.36577	954.78015	-89.48431	325.73273	945.27014	-103.89516	125.21584	898.48846	-239.20552	-61.49038	1036.03442	-265.48087	23.92393	1011.42218	-338.26608	72.19688	1037.92053	-409.73178	-122.37019	1094.68359	-168.21109	NaN	NaN	NaN	168.778	1637.08093	-220.87399	NaN	NaN	NaN	NaN	NaN	NaN	NaN	NaN	NaN	NaN	NaN	NaN	NaN	NaN	NaN
55	0.54	111.78108	436.29895	-235.08508	352.66916	484.81302	-386.60114	506.97232	1086.82202	-193.11369	420.95749	1056.12366	-300.21341	462.92477	1004.88928	-285.26025	520.14203	1170.86877	-127.56776	467.42139	1260.42444	-160.43825	344.09982	1368.15295	-281.39401	47.97122	1087.52576	-377.92908	438.13712	1001.32324	-362.05884	256.4104	1600.36292	-352.4906	195.84438	1311.05945	-345.30444	342.15967	897.37463	-282.20129	385.67786	594.26147	-325.13385	30.72286	1345.18762	-297.16833	74.43491	595.73999	-211.11589	238.90294	1536.3407	-227.3252	176.92516	1397.91736	-239.3447	140.42838	214.8078	-111.79478	198.88042	73.56532	-22.96574	218.89259	34.62076	-156.39854	110.23801	1537.58875	-242.69765	365.16943	348.1113	-190.6245	258.57968	1250.4895	-138.27284	239.31461	79.14947	26.25709	342.14832	267.96777	-21.96065	206.26402	1127.5874	-360.23746	299.75922	281.35837	26.99254	353.29626	132.20941	-84.4422	223.8829	1086.8844	-151.01138	-79.50863	1183.11194	-246.39868	124.21449	1607.19055	-368.16345	157.47075	954.09814	-125.99446	324.35486	946.01367	-139.91388	124.2134	896.19965	-274.73138	-56.48146	1039.26282	-319.01392	31.09103	1019.99127	-390.13873	81.07797	1050.34692	-458.14737	-121.93565	1092.99438	-220.80394	NaN	NaN	NaN	168.85043	1635.62427	-257.17343	NaN	NaN	NaN	NaN	NaN	NaN	NaN	NaN	NaN	NaN	NaN	NaN	NaN	NaN	NaN
56	0.55	111.7314	432.69489	-249.06577	350.91757	501.8381	-443.64099	507.12488	1096.82825	-217.42703	424.20734	1067.19385	-327.53848	464.57468	1015.39349	-311.80994	518.25391	1180.46472	-152.38533	464.51035	1267.92188	-188.82253	343.71689	1370.51733	-315.07248	53.37354	1099.45642	-424.13434	442.50394	1012.78308	-389.62305	257.63614	1602.13135	-388.87521	197.88443	1312.43835	-383.70859	342.27893	901.09186	-318.43408	384.82129	606.0517	-374.59323	32.25459	1348.11206	-338.94217	75.71823	593.54639	-233.18571	239.56131	1536.83228	-264.51007	176.49239	1398.95264	-277.39645	139.81166	216.12738	-117.96374	196.56987	78.13149	-24.02468	218.70789	34.39317	-155.82909	110.96541	1537.86646	-280.46661	363.85483	349.99277	-258.49866	254.245	1251.29626	-175.11786	236.32948	85.42449	24.63422	340.32849	257.13779	-95.7589	207.67792	1128.86353	-397.51038	298.52518	267.10886	-45.69707	350.33981	127.26731	-169.12544	220.21622	1087.83997	-188.15361	-79.09992	1184.61719	-294.23456	125.3424	1608.77271	-405.08417	155.56149	954.93738	-163.35023	322.2836	949.02655	-176.79578	123.01073	895.44769	-311.10812	-51.56455	1046.32922	-370.57971	38.68579	1032.20313	-440.26953	89.74657	1067.15991	-504.42157	-121.03063	1093.58948	-272.22562	NaN	NaN	NaN	169.18608	1636.19348	-293.79349	NaN	NaN	NaN	NaN	NaN	NaN	NaN	NaN	NaN	NaN	NaN	NaN	NaN	NaN	NaN
57	0.56	112.0969	431.91702	-263.74747	349.47833	520.63013	-496.93152	505.56607	1110.48682	-244.05351	425.39334	1080.94299	-355.90735	465.74405	1029.10889	-340.31946	515.17102	1191.69727	-178.51097	461.31061	1277.05469	-217.92624	343.45694	1374.89355	-348.99088	58.11166	1113.80933	-468.3851	444.71475	1027.75793	-419.06024	258.46774	1605.82849	-425.5365	200.01408	1315.93408	-422.12497	341.02289	906.44324	-356.16907	384.22556	619.2597	-421.96115	33.64027	1352.56665	-380.47025	76.81998	594.22369	-256.85645	240.66228	1539.46252	-302.11343	176.08397	1402.302	-316.08441	138.99855	219.94617	-124.73442	194.18719	84.84255	-26.49302	218.26428	34.38504	-155.90041	112.16989	1540.35901	-318.2233	361.80591	352.57239	-325.07932	250.54836	1254.39771	-212.2896	233.36324	95.04699	22.32371	337.2944	246.38457	-170.28609	209.51802	1132.26636	-435.16318	295.56424	252.39523	-119.4413	345.51074	123.34708	-254.88393	216.1862	1091.06311	-226.12344	-78.00005	1187.99792	-341.49612	126.64507	1612.45276	-442.20938	153.08661	957.37195	-201.61481	320.04239	953.68903	-214.55833	121.55563	896.00665	-348.42642	-46.49453	1055.6958	-420.30585	46.54839	1046.81567	-487.68137	97.77901	1086.3219	-548.81213	-119.88401	1096.52539	-322.47452	NaN	NaN	NaN	170.18245	1638.87451	-330.55133	NaN	NaN	NaN	NaN	NaN	NaN	NaN	NaN	NaN	NaN	NaN	NaN	NaN	NaN	NaN
58	0.57	112.30354	434.46606	-279.62891	348.9111	539.74542	-546.76282	502.63577	1125.41882	-271.71445	425.03571	1096.18225	-385.5722	465.94678	1045.20044	-370.70148	511.36417	1204.16711	-205.74684	457.94214	1287.328	-247.99429	343.05933	1381.15759	-383.40405	62.07426	1129.83557	-511.48865	445.34546	1044.62488	-450.02545	260.06958	1611.39417	-463.29477	202.09303	1321.39941	-460.4935	339.16772	913.49023	-395.29538	383.93344	633.31049	-467.64603	35.17839	1358.53564	-422.10608	77.25642	597.8288	-283.21057	242.15262	1544.26196	-339.98434	175.79912	1407.61377	-355.22708	138.618	226.93027	-132.92366	191.47313	94.3523	-30.67326	218.33423	34.27771	-156.21753	113.66207	1545.15771	-356.1142	359.12201	355.48334	-390.39932	247.34183	1259.50928	-249.84831	230.04541	107.397	17.23498	332.44882	235.25197	-245.79892	211.36931	1137.73328	-473.27332	291.12079	237.61047	-194.32378	338.78323	120.57947	-341.11557	212.07535	1096.14368	-264.69653	-76.68619	1193.05164	-388.70035	128.05795	1618.02747	-479.77518	150.04268	961.32202	-240.79305	317.38733	960.30634	-252.79759	119.51991	898.65106	-386.69269	-41.41538	1066.41858	-468.54828	53.94833	1063.1604	-533.27777	105.2196	1106.92065	-591.41211	-118.31676	1101.10876	-371.63663	NaN	NaN	NaN	171.69183	1643.8645	-367.66702	NaN	NaN	NaN	NaN	NaN	NaN	NaN	NaN	NaN	NaN	NaN	NaN	NaN	NaN	NaN
